<svg id="Capa_1" enable-background="new 0 0 497 497" height="512" viewBox="0 0 497 497" width="512" xmlns="http://www.w3.org/2000/svg"><g><g><path d="m356.5 166.185-108-55.328h-.001l-197.999 96.566v165.85c0 24.853 20.147 45 45 45h54 252c24.853 0 45-20.147 45-45 0-2.567 0-159.472 0-162.044z" fill="#efedff"/><path d="m248.499 151.656v-40.799l-197.999 96.566v165.85c0 24.853 20.147 45 45 45h54v-75c0-75.904 36.644-143.637 98.999-191.617z" fill="#d4d4ff"/><g><path d="m477.958 189.391-214.06-107.029-44.399 24 29 45.294 198.66 99.331c17.01 8.506 37.693 1.611 46.198-15.398 8.505-17.011 1.61-37.693-15.399-46.198z" fill="#ff8e9e"/><path d="m263.898 82.362c-4.847-2.423-10.033-3.635-15.399-3.635-5.276 0-10.552 1.212-15.399 3.635l-214.058 107.029c-17.01 8.505-23.904 29.188-15.399 46.198 8.505 17.008 29.188 23.904 46.198 15.398l198.659-99.331v-29.962c-.001-14.581 5.498-28.625 15.398-39.332z" fill="#ea5b70"/></g></g><g><path d="m95.5 418.272h34l20-37.5-20-37.5h-79v30c0 24.853 20.147 45 45 45z" fill="#ea5b70"/><path d="m129.5 343.272v75h119l20-37.5-20-37.5z" fill="#fce3a0"/><path d="m129.5 343.272h20v75h-20z" fill="#ffce71"/><path d="m248.5 418.272h119l20-37.5-20-37.5h-119z" fill="#88c5fd"/><path d="m367.5 418.272h34c24.853 0 45-20.147 45-45 0-1.6 0-12.879 0-30h-79z" fill="#c9aaf2"/></g><g><path d="m416.5 343.272v-47.614c0-8.284-6.716-15-15-15h-306c-8.284 0-15 6.716-15 15v47.614c0 8.284 6.716 15 15 15h306c8.284 0 15-6.716 15-15z" fill="#7ce3ff"/><path d="m95.5 280.657c-8.284 0-15 6.716-15 15v47.614c0 8.284 6.716 15 15 15h54v-15c0-21.625 2.985-42.583 8.681-62.614z" fill="#55dafe"/></g><g fill="#b9f0ff"><path d="m157.582 335.692c2.894-2.873 2.977-7.644 0-10.6-2.924-2.946-7.694-2.926-10.6 0l-33.182 33.179h21.205z"/><path d="m103.702 329.052c0 4.148 3.35 7.5 7.5 7.5 4.096 0 7.49-3.314 7.49-7.5 0-4.149-3.35-7.5-7.5-7.5-4.138 0-7.49 3.352-7.49 7.5z"/><circle cx="173.502" cy="309.182" r="7.5"/><path d="m127.102 302.532c-2.909 2.931-2.935 7.654 0 10.61 2.929 2.928 7.665 2.945 10.61 0l32.485-32.485h-21.218z"/><path d="m370.582 325.092c-2.924-2.946-7.694-2.926-10.6 0l-33.182 33.179h21.205l22.577-22.58c2.894-2.872 2.977-7.643 0-10.599z"/><path d="m331.692 329.052c0-4.149-3.35-7.5-7.5-7.5-4.139 0-7.49 3.352-7.49 7.5s3.35 7.5 7.5 7.5c4.097 0 7.49-3.314 7.49-7.5z"/><circle cx="386.502" cy="309.182" r="7.5"/><path d="m340.102 302.532c-2.909 2.931-2.935 7.654 0 10.61 2.929 2.928 7.665 2.945 10.61 0l32.485-32.485h-21.218z"/></g><path d="m268.473 266.572c-21.935-6.76-46.671-2.184-64.973 14.085v137.614h40 50v-137.614c-7.435-6.608-15.995-11.301-25.027-14.085z" fill="#d6948c"/><path d="m268.473 266.572c-21.935-6.76-46.671-2.184-64.973 14.085v137.614h40v-117.597c0-15.492 9.922-29.384 24.704-34.017.09-.029.18-.057.269-.085z" fill="#ce857a"/><g><g fill="#ffb5c0"><path d="m173.298 224.679c-13.807 0-25 8.913-25 19.909 0 10.995 11.193 19.908 25 19.908s25-8.913 25-19.908c0-10.996-11.193-19.909-25-19.909z"/><path d="m323.702 224.679c-13.807 0-25 8.913-25 19.909 0 10.995 11.193 19.908 25 19.908s25-8.913 25-19.908c0-10.996-11.193-19.909-25-19.909z"/></g><g fill="#313d40"><path d="m186.051 208.584c-4.143 0-7.5 3.357-7.5 7.5v12c0 4.143 3.357 7.5 7.5 7.5s7.5-3.357 7.5-7.5v-12c0-4.143-3.358-7.5-7.5-7.5z"/><path d="m310.948 208.584c-4.143 0-7.5 3.357-7.5 7.5v12c0 4.143 3.357 7.5 7.5 7.5s7.5-3.357 7.5-7.5v-12c0-4.143-3.357-7.5-7.5-7.5z"/><path d="m269.891 222.072c-3.122-2.722-7.861-2.397-10.581.728-5.726 6.569-15.898 6.563-21.619 0-2.721-3.124-7.459-3.448-10.581-.728-3.123 2.721-3.449 7.459-.728 10.581 11.702 13.431 32.545 13.419 44.236 0 2.722-3.122 2.396-7.86-.727-10.581z"/></g></g></g></svg>